<svg width="153" height="76" viewBox="0 0 153 76" fill="none" xmlns="http://www.w3.org/2000/svg">
<path d="M53 58.6668V70H50.7404L12.0757 22.0062V63.2932C12.0757 66.8341 16.1591 67.8894 19.5485 67.8894H21.721V70H0V67.8894H3.64748C7.03691 67.8894 9.64175 66.4591 9.64175 63.2932V19.6718C7.55648 18.1659 4.95164 17.1862 2.25614 17.1862H0V15H17.9863L50.5695 55.5341" fill="#4A7B36"/>
<path d="M47.2349 9.94138L52.7432 15.2676" stroke="#E71F19" stroke-width="0.5" stroke-miterlimit="10"/>
<path d="M60.4312 13.8629L52.7955 19.7956" stroke="#E3750F" stroke-width="0.5" stroke-miterlimit="10"/>
<path d="M43.9968 17.0767L52.6701 25.0103" stroke="#EFEA3A" stroke-width="0.5" stroke-miterlimit="10"/>
<path d="M63.2933 20.7891L52.9208 28.4159" stroke="#5D9725" stroke-width="0.5" stroke-miterlimit="10"/>
<path d="M41.4933 24.233L52.8373 33.7805" stroke="#266BB5" stroke-width="0.5" stroke-miterlimit="10"/>
<path d="M64.4493 29.6777L52.9208 37.9111" stroke="#909090" stroke-width="0.5" stroke-miterlimit="10"/>
<path d="M42.1514 33.533L52.9208 42.2892" stroke="#6855A2" stroke-width="0.5" stroke-miterlimit="10"/>
<mask id="mask0_6_161" style="mask-type:luminance" maskUnits="userSpaceOnUse" x="40" y="0" width="13" height="49">
<path d="M52.6806 0.118515L52.9208 48.4555H40.9954V0.118515H52.6806Z" fill="white"/>
</mask>
<g mask="url(#mask0_6_161)">
<path d="M53.0114 48.3056C53.0114 48.3056 43.6834 42.5716 41.4411 31.1069C39.1988 19.6423 51.5977 2.23786 53.6903 0.244003" stroke="#4A7B36" stroke-miterlimit="10"/>
</g>
<mask id="mask1_6_161" style="mask-type:luminance" maskUnits="userSpaceOnUse" x="52" y="0" width="13" height="49">
<path d="M52.6806 0.118516L52.9208 48.4555L64.8462 48.3335L64.3622 0L52.6806 0.118516Z" fill="white"/>
</mask>
<g mask="url(#mask1_6_161)">
<path d="M52.8303 48.3056C52.8303 48.3056 62.099 42.4809 64.2299 30.9919C66.3573 19.5063 53.7808 2.2274 51.6674 0.254459" stroke="#4A7B36" stroke-miterlimit="10"/>
</g>
<path d="M52.6701 1.48145L52.9208 48.2743" stroke="#4A7B36" stroke-miterlimit="10"/>
<path d="M74.0021 35.1157C74.0021 35.8686 74.0021 36.5588 74.023 37.3744C74.0439 37.9601 74.0647 38.6084 74.0647 38.8803C74.0647 39.2358 73.9603 39.2986 73.5634 39.2986H73.25C72.8531 39.2986 72.7486 39.2358 72.7486 38.8803C72.7486 38.6293 72.7695 38.0228 72.7904 37.4581C72.8113 36.6424 72.8113 35.8895 72.8113 35.1157V28.8866C72.8113 28.1755 72.8113 27.318 72.7904 26.6069C72.7695 26.1468 72.7486 25.6867 72.7486 25.5403C72.7486 25.1847 72.8531 25.122 73.25 25.122H73.438C73.8767 25.122 74.0021 25.1847 74.2528 25.5612C74.7959 26.3769 75.3809 27.1716 75.9867 27.9873L82.1461 36.3705C82.2715 36.5379 82.3342 36.5588 82.3968 36.5588C82.4804 36.5588 82.5222 36.4542 82.5222 36.2451V29.3049C82.5222 28.5938 82.5222 27.6736 82.5013 26.8579C82.4804 26.1677 82.4595 25.624 82.4595 25.5403C82.4595 25.1847 82.564 25.122 82.9609 25.122H83.2743C83.6712 25.122 83.7757 25.1847 83.7757 25.5403C83.7757 25.624 83.7548 26.1677 83.7339 26.8579C83.713 27.6945 83.713 28.5938 83.713 29.3049V35.534C83.713 36.3496 83.713 37.249 83.7339 37.9182C83.7548 38.2738 83.7757 38.713 83.7757 38.943C83.7757 39.2568 83.6712 39.2986 83.2952 39.2986C82.8773 39.2986 82.7729 39.2358 82.564 38.9012C82.0417 38.1483 81.4776 37.3954 80.9345 36.6424L74.3781 27.7363C74.2737 27.5899 74.1901 27.5481 74.1274 27.5481C74.0439 27.5481 74.0021 27.6527 74.0021 27.8618V35.1157Z" fill="#4B7F1B"/>
<path d="M87.3028 35.7222C86.8432 36.8307 86.488 37.7091 86.0911 38.7931C85.9449 39.2324 85.8404 39.2951 85.4017 39.2951H84.9839C84.7123 39.2951 84.5869 39.2533 84.5869 39.1278C84.5869 39.0441 84.6287 38.9605 84.6914 38.8141C85.2346 37.601 85.7568 36.388 86.2791 35.1784L89.2039 28.2383C89.559 27.4017 89.9142 26.5024 90.2484 25.624C90.3947 25.1847 90.4991 25.122 90.9379 25.122H91.2512C91.6899 25.122 91.7944 25.1847 91.9406 25.624C92.254 26.4814 92.6091 27.3599 92.9852 28.2383L95.91 35.1784C96.4322 36.4333 96.9754 37.6254 97.5186 38.8141C97.5812 38.9605 97.623 39.0441 97.623 39.1278C97.623 39.2533 97.4977 39.2951 97.2261 39.2951H96.7247C96.286 39.2951 96.1815 39.2324 96.0353 38.7931C95.6384 37.7056 95.2832 36.8272 94.8236 35.7222L94.7192 35.4712C94.5938 35.1784 94.364 35.032 93.9044 35.032H88.2255C87.7659 35.032 87.5361 35.1784 87.4107 35.4712L87.3063 35.7222H87.3028ZM88.2847 33.3379C88.222 33.5053 88.1802 33.6098 88.1802 33.6935C88.1802 33.8817 88.3265 33.9235 88.6607 33.9235H93.4622C93.7965 33.9235 93.9427 33.8817 93.9427 33.6935C93.9427 33.6098 93.9009 33.5053 93.8382 33.3379L91.3104 27.2135C91.2268 27.0043 91.1433 26.9207 91.0597 26.9207C90.9761 26.9207 90.8926 27.0043 90.809 27.2135L88.2812 33.3379H88.2847Z" fill="#4B7F1B"/>
<path d="M100.099 35.1157C100.099 35.8686 100.099 36.5588 100.12 37.3744C100.14 37.9601 100.161 38.6084 100.161 38.8803C100.161 39.2358 100.057 39.2986 99.6599 39.2986H99.3465C98.9496 39.2986 98.8452 39.2358 98.8452 38.8803C98.8452 38.6293 98.866 38.0228 98.8869 37.4581C98.9078 36.6424 98.9078 35.8895 98.9078 35.1157V28.8866C98.9078 28.1755 98.9078 27.318 98.8869 26.6069C98.866 26.1468 98.8452 25.6867 98.8452 25.5403C98.8452 25.1847 98.9496 25.122 99.3465 25.122H99.5346C99.9733 25.122 100.099 25.1847 100.349 25.5612C100.892 26.3769 101.477 27.1716 102.083 27.9873L108.243 36.3705C108.368 36.5379 108.431 36.5588 108.493 36.5588C108.577 36.5588 108.619 36.4542 108.619 36.2451V29.3049C108.619 28.5938 108.619 27.6736 108.598 26.8579C108.577 26.1677 108.556 25.624 108.556 25.5403C108.556 25.1847 108.661 25.122 109.057 25.122H109.371C109.768 25.122 109.872 25.1847 109.872 25.5403C109.872 25.624 109.851 26.1677 109.83 26.8579C109.81 27.6945 109.81 28.5938 109.81 29.3049V35.534C109.81 36.3496 109.81 37.249 109.83 37.9182C109.851 38.2738 109.872 38.713 109.872 38.943C109.872 39.2568 109.768 39.2986 109.392 39.2986C108.974 39.2986 108.869 39.2358 108.661 38.9012C108.138 38.1483 107.574 37.3954 107.031 36.6424L100.475 27.7363C100.37 27.5899 100.287 27.5481 100.224 27.5481C100.14 27.5481 100.099 27.6527 100.099 27.8618V35.1157Z" fill="#4B7F1B"/>
<path d="M113.399 35.7222C112.94 36.8307 112.585 37.7091 112.188 38.7931C112.041 39.2324 111.937 39.2951 111.498 39.2951H111.08C110.809 39.2951 110.683 39.2533 110.683 39.1278C110.683 39.0441 110.725 38.9605 110.788 38.8141C111.331 37.601 111.853 36.388 112.376 35.1784L115.3 28.2383C115.656 27.4017 116.011 26.5024 116.345 25.624C116.491 25.1847 116.596 25.122 117.034 25.122H117.348C117.786 25.122 117.891 25.1847 118.037 25.624C118.351 26.4814 118.706 27.3599 119.082 28.2383L122.007 35.1784C122.529 36.4333 123.072 37.6254 123.615 38.8141C123.678 38.9605 123.72 39.0441 123.72 39.1278C123.72 39.2533 123.594 39.2951 123.323 39.2951H122.821C122.383 39.2951 122.278 39.2324 122.132 38.7931C121.735 37.7056 121.38 36.8272 120.92 35.7222L120.816 35.4712C120.69 35.1784 120.461 35.032 120.001 35.032H114.322C113.862 35.032 113.633 35.1784 113.507 35.4712L113.403 35.7222H113.399ZM114.381 33.3379C114.319 33.5053 114.277 33.6098 114.277 33.6935C114.277 33.8817 114.423 33.9235 114.757 33.9235H119.559C119.893 33.9235 120.039 33.8817 120.039 33.6935C120.039 33.6098 119.997 33.5053 119.935 33.3379L117.407 27.2135C117.323 27.0043 117.24 26.9207 117.156 26.9207C117.073 26.9207 116.989 27.0043 116.906 27.2135L114.378 33.3379H114.381Z" fill="#4B7F1B"/>
<path d="M125.485 39.2951C125.088 39.2951 124.984 39.2324 124.984 38.8768C124.984 38.6886 125.004 38.1239 125.025 37.6219C125.046 37.0363 125.046 35.9279 125.046 35.1122V29.3014C125.046 28.5067 125.046 27.7119 125.025 26.8335C125.004 26.3525 124.984 25.6832 124.984 25.5368C124.984 25.1813 125.088 25.1185 125.485 25.1185H125.819C126.216 25.1185 126.321 25.1813 126.321 25.5368C126.321 25.6832 126.3 26.3316 126.279 26.8126C126.258 27.7119 126.258 28.5067 126.258 29.3014V35.1122C126.258 35.9279 126.258 37.0154 126.279 37.601C126.3 38.103 126.321 38.6886 126.321 38.8768C126.321 39.2324 126.216 39.2951 125.819 39.2951H125.485Z" fill="#4B7F1B"/>
<path d="M130.185 35.1157C130.185 35.7013 130.185 36.4124 130.206 37.1862C130.227 37.9601 130.248 38.7548 130.248 38.8803C130.248 39.2358 130.144 39.2986 129.747 39.2986H129.412C129.015 39.2986 128.911 39.2358 128.911 38.8803C128.911 38.7548 128.932 37.8973 128.953 37.1653C128.974 36.4333 128.974 35.7013 128.974 35.1157V29.3049C128.974 28.05 128.953 25.7738 128.953 25.5856C128.953 25.2301 129.078 25.1046 129.433 25.1046C129.621 25.1046 131.23 25.1255 132.17 25.1255H133.256C135.784 25.1255 137.431 26.0876 137.431 28.8657C137.431 30.8526 136.449 32.3759 134.444 33.066C134.172 33.1706 134.047 33.2334 134.047 33.3589C134.047 33.4425 134.109 33.568 134.256 33.7353L135.008 34.6137C136.136 35.9523 137.076 37.1026 138.577 38.7931C138.702 38.9396 138.786 39.065 138.786 39.1487C138.786 39.2533 138.681 39.2951 138.43 39.2951H137.637C137.198 39.2951 137.073 39.2324 136.822 38.8768C135.903 37.5592 134.983 36.4507 133.981 35.2412L132.853 33.8817C132.518 33.4843 132.351 33.4007 131.829 33.4007H130.805C130.283 33.4007 130.178 33.5053 130.178 34.0281V35.1157H130.185ZM130.185 31.6683C130.185 32.1911 130.29 32.2957 130.812 32.2957H132.442C134.28 32.2957 136.178 31.5637 136.178 29.0156C136.178 26.4675 134.59 26.2758 133.131 26.2758H130.812C130.29 26.2758 130.185 26.3804 130.185 26.9032V31.6683Z" fill="#4B7F1B"/>
<path d="M152.838 31.9611C152.838 36.6843 149.52 39.4241 145.76 39.4241C141.999 39.4241 139.057 36.5797 139.057 32.3794C139.057 28.179 141.836 25 146.094 25C149.976 25 152.838 27.7607 152.838 31.9611ZM140.332 32.3794C140.332 35.9523 142.671 38.2319 145.802 38.2319C148.932 38.2319 151.564 35.9104 151.564 32.0029C151.564 28.43 149.182 26.234 146.073 26.234C142.504 26.234 140.332 28.9528 140.332 32.3794Z" fill="#4B7F1B"/>
<path d="M83.3787 60.4537C83.3787 60.8929 83.2952 61.0183 82.9191 61.2066C81.8119 61.7294 80.4331 62.0641 79.1204 62.0641C74.5905 62.0641 72 59.2824 72 55.103C72 50.9236 74.9039 47.64 79.6845 47.64C80.8544 47.64 81.9825 47.891 82.7764 48.2047C83.0479 48.3093 83.1524 48.4138 83.1524 48.5812C83.1524 48.6857 83.1315 48.7694 83.0897 48.8949L82.9644 49.2295C82.8599 49.4805 82.7973 49.606 82.651 49.606C82.5675 49.606 82.4839 49.5641 82.3168 49.4805C81.5647 49.104 80.5201 48.874 79.58 48.874C75.5724 48.874 73.2953 51.6556 73.2953 55.103C73.2953 58.8642 75.7604 60.8929 79.2249 60.8929C79.9561 60.8929 80.8335 60.7465 81.5647 60.4955C82.0452 60.3282 82.1496 60.1818 82.1496 59.6798V58.0276C82.1496 57.442 82.1496 57.0028 82.1287 56.5217C82.1078 56.2707 82.087 55.8734 82.087 55.727C82.087 55.3714 82.1914 55.3087 82.5883 55.3087H82.9435C83.3404 55.3087 83.4449 55.3714 83.4449 55.727C83.4449 55.8734 83.424 56.2707 83.4031 56.5217C83.3822 57.0028 83.3822 57.421 83.3822 58.0276V60.4537H83.3787Z" fill="#4B7F1B"/>
<path d="M86.7805 58.3657C86.3209 59.4742 85.9658 60.3526 85.5688 61.4366C85.4226 61.8758 85.3181 61.9386 84.8794 61.9386H84.4616C84.19 61.9386 84.0647 61.8968 84.0647 61.7713C84.0647 61.6876 84.1064 61.604 84.1691 61.4576C84.7123 60.2445 85.2346 59.0315 85.7568 57.8219L88.6816 50.8818C89.0368 50.0452 89.3919 49.1459 89.7262 48.2674C89.8724 47.8282 89.9769 47.7655 90.4156 47.7655H90.7289C91.1677 47.7655 91.2721 47.8282 91.4183 48.2674C91.7317 49.1249 92.0869 50.0034 92.4629 50.8818L95.3877 57.8219C95.91 59.0768 96.4531 60.2689 96.9963 61.4576C97.059 61.604 97.1007 61.6876 97.1007 61.7713C97.1007 61.8968 96.9754 61.9386 96.7038 61.9386H96.2024C95.7637 61.9386 95.6593 61.8758 95.513 61.4366C95.1161 60.3491 94.7609 59.4707 94.3013 58.3657L94.1969 58.1147C94.0715 57.8219 93.8417 57.6755 93.3821 57.6755H87.7032C87.2436 57.6755 87.0138 57.8219 86.8884 58.1147L86.784 58.3657H86.7805ZM87.7624 55.9814C87.6997 56.1487 87.6579 56.2533 87.6579 56.337C87.6579 56.5252 87.8042 56.567 88.1384 56.567H92.9399C93.2742 56.567 93.4204 56.5252 93.4204 56.337C93.4204 56.2533 93.3786 56.1487 93.316 55.9814L90.7881 49.857C90.7046 49.6478 90.621 49.5641 90.5374 49.5641C90.4539 49.5641 90.3703 49.6478 90.2867 49.857L87.7589 55.9814H87.7624Z" fill="#4B7F1B"/>
<path d="M99.5972 57.7592C99.5972 58.3448 99.5972 59.0559 99.6181 59.8297C99.639 60.6035 99.6599 61.3983 99.6599 61.5238C99.6599 61.8793 99.5555 61.9421 99.1585 61.9421H98.8243C98.4273 61.9421 98.3229 61.8793 98.3229 61.5238C98.3229 61.3983 98.3438 60.5408 98.3647 59.8088C98.3855 59.0768 98.3855 58.3448 98.3855 57.7592V51.9484C98.3855 50.6935 98.3647 48.4173 98.3647 48.2291C98.3647 47.8736 98.49 47.7481 98.8452 47.7481C99.0332 47.7481 100.642 47.769 101.582 47.769H102.668C105.196 47.769 106.843 48.731 106.843 51.5092C106.843 53.4961 105.861 55.0194 103.856 55.7095C103.584 55.8141 103.459 55.8769 103.459 56.0023C103.459 56.086 103.521 56.2115 103.668 56.3788L104.42 57.2572C105.548 58.5957 106.488 59.746 107.989 61.4366C108.114 61.583 108.197 61.7085 108.197 61.7922C108.197 61.8968 108.093 61.9386 107.842 61.9386H107.048C106.61 61.9386 106.484 61.8758 106.234 61.5203C105.314 60.2027 104.395 59.0942 103.392 57.8846L102.264 56.5252C101.93 56.1278 101.763 56.0442 101.241 56.0442H100.217C99.6947 56.0442 99.5903 56.1487 99.5903 56.6716V57.7592H99.5972ZM99.5972 54.3117C99.5972 54.8346 99.7017 54.9392 100.224 54.9392H101.853C103.692 54.9392 105.59 54.2072 105.59 51.6591C105.59 49.111 104.002 48.9193 102.543 48.9193H100.224C99.7017 48.9193 99.5972 49.0239 99.5972 49.5467V54.3117Z" fill="#4B7F1B"/>
<path d="M112.898 61.9386C111.895 61.9386 110.454 61.9595 110.161 61.9595C109.806 61.9595 109.681 61.834 109.681 61.4785C109.681 61.1857 109.702 59.0524 109.702 57.801V51.9066C109.702 50.568 109.681 48.3755 109.681 48.2291C109.681 47.8736 109.806 47.7481 110.161 47.7481C110.307 47.7481 111.874 47.769 112.898 47.769H114.444C118.911 47.769 121.105 50.0487 121.105 54.3745C121.105 58.7003 119.183 61.9421 113.963 61.9421H112.898V61.9386ZM110.934 60.1818C110.934 60.7046 111.039 60.8092 111.561 60.8092H113.922C118.222 60.8092 119.851 57.8812 119.851 54.4128C119.851 51.2373 118.243 48.9367 114.319 48.9367H111.561C111.039 48.9367 110.934 49.0413 110.934 49.5641V60.1818Z" fill="#4B7F1B"/>
<path d="M126.843 60.8301C127.428 60.8301 128.096 60.8301 128.702 60.8092C129.266 60.7883 129.705 60.7674 129.83 60.7674C130.123 60.7674 130.185 60.8719 130.185 61.2484V61.4576C130.185 61.8549 130.123 61.9595 129.768 61.9595C129.517 61.9595 127.992 61.9386 126.843 61.9386H125.798C124.775 61.9386 123.312 61.9595 123.062 61.9595C122.706 61.9595 122.581 61.834 122.581 61.4785C122.581 61.1438 122.602 59.0524 122.602 57.801V51.9066C122.602 50.568 122.581 48.3755 122.581 48.2291C122.581 47.8736 122.706 47.7481 123.062 47.7481C123.208 47.7481 124.775 47.769 125.798 47.769H126.425C127.49 47.769 129.204 47.7481 129.346 47.7481C129.701 47.7481 129.764 47.8526 129.764 48.25V48.501C129.764 48.8774 129.701 48.982 129.409 48.982C129.2 48.982 128.845 48.9611 128.511 48.9402C127.926 48.9193 127.132 48.9193 126.422 48.9193H124.437C123.915 48.9193 123.81 49.0239 123.81 49.5467V53.1824C123.81 53.7052 123.915 53.8098 124.437 53.8098H126.004C126.798 53.8098 127.654 53.8098 128.49 53.768C128.699 53.7471 128.866 53.7471 128.928 53.7471C129.284 53.7471 129.346 53.8516 129.346 54.249V54.4791C129.346 54.8764 129.284 54.981 128.928 54.981C128.866 54.981 128.678 54.981 128.448 54.9601C127.675 54.9183 126.818 54.9183 126.004 54.9183H124.437C123.915 54.9183 123.81 55.0228 123.81 55.5457V60.2062C123.81 60.729 123.915 60.8336 124.437 60.8336H126.839L126.843 60.8301Z" fill="#4B7F1B"/>
<path d="M132.919 57.7592C132.919 58.5121 132.919 59.2023 132.94 60.0179C132.96 60.6035 132.981 61.2519 132.981 61.5238C132.981 61.8793 132.877 61.9421 132.48 61.9421H132.167C131.77 61.9421 131.665 61.8793 131.665 61.5238C131.665 61.2728 131.686 60.6663 131.707 60.1016C131.728 59.2859 131.728 58.533 131.728 57.7592V51.5301C131.728 50.819 131.728 49.9615 131.707 49.2504C131.686 48.7903 131.665 48.3302 131.665 48.1838C131.665 47.8282 131.77 47.7655 132.167 47.7655H132.355C132.793 47.7655 132.919 47.8282 133.169 48.2047C133.713 49.0204 134.297 49.8151 134.903 50.6308L141.063 59.014C141.188 59.1814 141.251 59.2023 141.313 59.2023C141.397 59.2023 141.439 59.0977 141.439 58.8886V51.9484C141.439 51.2373 141.439 50.3171 141.418 49.5014C141.397 48.8112 141.376 48.2674 141.376 48.1838C141.376 47.8282 141.481 47.7655 141.877 47.7655H142.191C142.588 47.7655 142.692 47.8282 142.692 48.1838C142.692 48.2674 142.671 48.8112 142.65 49.5014C142.63 50.338 142.63 51.2373 142.63 51.9484V58.1775C142.63 58.9931 142.63 59.8925 142.65 60.5617C142.671 60.9173 142.692 61.3565 142.692 61.5865C142.692 61.9003 142.588 61.9421 142.212 61.9421C141.794 61.9421 141.689 61.8793 141.481 61.5447C140.958 60.7918 140.394 60.0389 139.851 59.2859L133.295 50.3798C133.19 50.2334 133.107 50.1916 133.044 50.1916C132.96 50.1916 132.919 50.2962 132.919 50.5053V57.7592Z" fill="#4B7F1B"/>
</svg>
