<?xml version="1.0" encoding="utf-8"?>
<!-- Generator: Adobe Illustrator 28.0.0, SVG Export Plug-In . SVG Version: 6.00 Build 0)  -->
<svg version="1.1" id="レイヤー_1" xmlns="http://www.w3.org/2000/svg" xmlns:xlink="http://www.w3.org/1999/xlink" x="0px"
	 y="0px" viewBox="0 0 56.69 42.52" style="enable-background:new 0 0 56.69 42.52;" xml:space="preserve">
<style type="text/css">
	.st0{fill:none;stroke:#F9F5E4;stroke-miterlimit:10;}
	.st1{fill:#FFFFFF;stroke:#F9F5E4;stroke-miterlimit:10;}
	.st2{fill:none;stroke:#F9F5E4;stroke-width:0.5;stroke-miterlimit:10;}
</style>
<polyline class="st0" points="43.42,37.88 43.42,39.42 12.01,39.43 12,3.1 43.4,3.09 43.41,15.56 "/>
<line class="st1" x1="18.86" y1="12.79" x2="35.36" y2="12.79"/>
<line class="st1" x1="18.86" y1="21.26" x2="35.36" y2="21.26"/>
<line class="st1" x1="18.86" y1="29.73" x2="35.36" y2="29.73"/>
<path class="st0" d="M50.78,36.49H38.74c-0.86,0-1.56-0.7-1.56-1.56V19.02c0-0.86,0.7-1.56,1.56-1.56h12.04
	c0.86,0,1.56,0.7,1.56,1.56v15.91C52.34,35.79,51.64,36.49,50.78,36.49z"/>
<rect x="39.34" y="20.04" class="st0" width="11.04" height="3.37"/>
<rect x="40.65" y="27.25" class="st2" width="1.13" height="1.13"/>
<rect x="44.36" y="27.25" class="st2" width="1.13" height="1.13"/>
<rect x="47.97" y="27.25" class="st2" width="1.13" height="1.13"/>
<rect x="40.61" y="31.07" class="st2" width="1.13" height="1.13"/>
<rect x="44.31" y="31.07" class="st2" width="1.13" height="1.13"/>
<rect x="47.93" y="31.07" class="st2" width="1.13" height="1.13"/>
</svg>
