<?xml version="1.0" encoding="utf-8"?>
<!-- Generator: Adobe Illustrator 28.0.0, SVG Export Plug-In . SVG Version: 6.00 Build 0)  -->
<svg version="1.1" id="レイヤー_1" xmlns="http://www.w3.org/2000/svg" xmlns:xlink="http://www.w3.org/1999/xlink" x="0px"
	 y="0px" viewBox="0 0 56.69 42.52" style="enable-background:new 0 0 56.69 42.52;" xml:space="preserve">
<style type="text/css">
	.st0{fill:none;stroke:#F9F5E4;stroke-miterlimit:10;}
	.st1{fill:#FAF7E5;}
	.st2{fill:none;stroke:#FAF7E5;stroke-miterlimit:10;}
</style>
<circle class="st0" cx="14.36" cy="11.48" r="6.4"/>
<circle class="st0" cx="42.55" cy="11.48" r="6.4"/>
<rect x="19.88" y="22.23" class="st1" width="16.92" height="1"/>
<rect x="27.79" y="22.96" class="st1" width="1.15" height="17.16"/>
<path class="st2" d="M14.31,17.61c0,0-0.02,4.44,0.01,8.22c0.01,1.59,1.3,2.86,2.88,2.87c2.35,0.01,4.79-0.09,5.45,1.52
	c0.95,2.31,0.65,8.99,0.65,8.99"/>
<path class="st2" d="M42.55,17.88c0,0,0.02,4.17-0.01,7.96c-0.01,1.59-1.3,2.86-2.88,2.87c-2.35,0.01-4.79-0.09-5.45,1.52
	c-0.95,2.31-0.65,8.99-0.65,8.99"/>
</svg>
