<?xml version="1.0" encoding="utf-8"?>
<!-- Generator: Adobe Illustrator 28.0.0, SVG Export Plug-In . SVG Version: 6.00 Build 0)  -->
<svg version="1.1" id="レイヤー_1" xmlns="http://www.w3.org/2000/svg" xmlns:xlink="http://www.w3.org/1999/xlink" x="0px"
	 y="0px" viewBox="0 0 56.69 42.52" style="enable-background:new 0 0 56.69 42.52;" xml:space="preserve">
<style type="text/css">
	.st0{fill:none;stroke:#FAF7E5;stroke-miterlimit:10;}
	.st1{fill:#FAF7E5;}
</style>
<path class="st0" d="M47.77,39.91H8.06c-1.85,0-3.35-1.5-3.35-3.35V7.77c0-1.85,1.5-3.35,3.35-3.35h39.71c1.85,0,3.35,1.5,3.35,3.35
	v28.79C51.12,38.41,49.62,39.91,47.77,39.91z"/>
<path class="st1" d="M17.23,7.93h-1c-0.48,0-0.87-0.39-0.87-0.87V1.77c0-0.48,0.39-0.87,0.87-0.87h1.21c0.36,0,0.66,0.29,0.66,0.66
	v5.5C18.1,7.54,17.71,7.93,17.23,7.93z"/>
<path class="st1" d="M39.77,7.93h-1.26c-0.41,0-0.74-0.33-0.74-0.74V1.64c0-0.41,0.33-0.74,0.74-0.74h1.48
	c0.29,0,0.52,0.23,0.52,0.52v5.77C40.51,7.6,40.17,7.93,39.77,7.93z"/>
<rect x="4.85" y="13.47" class="st1" width="46.13" height="1.13"/>
<rect x="14.78" y="20.66" class="st0" width="3.78" height="3.78"/>
<rect x="26.02" y="20.66" class="st0" width="3.78" height="3.78"/>
<rect x="14.78" y="29.23" class="st0" width="3.78" height="3.78"/>
<rect x="25.8" y="29.23" class="st0" width="3.78" height="3.78"/>
<rect x="37.19" y="29.23" class="st0" width="3.78" height="3.78"/>
<polyline class="st0" points="37.19,21.37 39.08,23.89 43.58,19.11 "/>
</svg>
